<svg width="80" height="80" viewBox="0 0 80 80" fill="none" xmlns="http://www.w3.org/2000/svg">
<path fill-rule="evenodd" clip-rule="evenodd" d="M16.6163 6.66663C12.0515 6.66663 8.6739 10.6619 8.8251 14.9948C8.97017 19.1575 8.7817 24.5487 7.4244 28.9453C6.06307 33.3546 3.76067 36.148 0 36.5066V40.5553C3.76067 40.914 6.06307 43.7073 7.4244 48.117C8.7817 52.5133 8.97017 57.9046 8.8251 62.0673C8.6739 66.3996 12.0515 70.3953 16.6169 70.3953H63.3897C67.9547 70.3953 71.3317 66.4003 71.1803 62.0673C71.0353 57.9046 71.2237 52.5133 72.581 48.117C73.943 43.7073 76.2393 40.914 80 40.5553V36.5066C76.2393 36.148 73.943 33.3546 72.581 28.9453C71.2237 24.5493 71.0353 19.1575 71.1803 14.9948C71.3317 10.6626 67.9547 6.66663 63.3897 6.66663H16.6163ZM54.2373 45.8956C54.2373 51.862 49.787 55.4803 42.402 55.4803H29.8305C29.4709 55.4803 29.126 55.3373 28.8717 55.083C28.6174 54.8286 28.4746 54.484 28.4746 54.1243V22.9378C28.4746 22.5782 28.6174 22.2333 28.8717 21.979C29.126 21.7247 29.4709 21.5819 29.8305 21.5819H42.3303C48.488 21.5819 52.5293 24.9175 52.5293 30.0388C52.5293 33.6333 49.811 36.8516 46.347 37.415V37.603C51.0623 38.1203 54.2373 41.3853 54.2373 45.8956ZM41.0313 25.8802H33.863V36.005H39.9003C44.5673 36.005 47.141 34.1256 47.141 30.7663C47.141 27.6185 44.928 25.8802 41.0313 25.8802ZM33.863 40.0226V51.1806H41.295C46.154 51.1806 48.728 49.2306 48.728 45.5663C48.728 41.9013 46.082 40.022 40.9823 40.022L33.863 40.0226Z" fill="white"/>
</svg>
