<svg width="80" height="80" viewBox="0 0 80 80" fill="none" xmlns="http://www.w3.org/2000/svg">
<path d="M75.4861 0.0783691L68.8314 72.1587L39.9995 79.9218L11.1672 72.1587L4.51392 0.0783691H75.4861ZM62.0766 14.7348H39.9736H17.4791L18.5549 23.4391H39.9736H41.1767L39.9736 23.9399L19.3377 32.5346L20.022 41.0429L39.9736 41.1076L50.667 41.1415L49.9825 52.4862L39.9734 55.3042V55.2952L39.8914 55.3181L30.2252 52.8779L29.6386 45.8357H29.6066H20.6406H20.6091L21.7827 59.4306L39.9738 64.8101V64.8004L40.0066 64.8101L58.1002 59.5285L60.4472 32.5346H39.9738H39.9233L39.9738 32.5127L61.1972 23.4391L62.0766 14.7348Z" fill="white"/>
</svg>
