<svg width="80" height="80" viewBox="0 0 80 80" fill="none" xmlns="http://www.w3.org/2000/svg">
<path d="M55.0974 15.3726C52.2924 12.5776 49.4524 9.82012 46.5499 7.12762C45.7324 6.24012 44.5649 5.68512 43.2674 5.68512C43.2474 5.68512 43.2299 5.68512 43.2099 5.68512C42.2074 5.78262 41.2899 5.99762 40.4199 6.31762L40.4974 6.29262L22.3474 15.3676L55.0974 15.3726ZM17.4874 17.4876V54.2601C17.4624 54.4676 17.4474 54.7076 17.4474 54.9501C17.4474 56.5051 18.0549 57.9201 19.0449 58.9676L19.0424 58.9651L34.3974 74.3176H61.0199V61.0176L17.4874 17.4876ZM15.3699 15.3676C15.3699 15.3676 31.1349 7.49012 39.0149 3.54762C40.2549 2.92262 41.7149 2.55762 43.2624 2.55762C43.3924 2.55762 43.5249 2.56012 43.6549 2.56512H43.6374C45.6524 2.96262 47.4199 3.82512 48.8899 5.04012L48.8699 5.02512L77.4424 33.6001V64.1401H64.1424V77.4401H33.1074L5.02988 49.3626C3.54238 47.8326 2.60988 45.7551 2.56738 43.4576V43.4501C2.69488 42.1726 3.04488 41.0051 3.57988 39.9451L3.55488 40.0026L15.3699 15.3676Z" fill="white"/>
</svg>
