<svg width="80" height="80" viewBox="0 0 80 80" fill="none" xmlns="http://www.w3.org/2000/svg">
<path fill-rule="evenodd" clip-rule="evenodd" d="M72.2 5H7.8C6.2536 5 5 6.2536 5 7.8V72.2C5 73.7464 6.2536 75 7.8 75H72.2C73.7464 75 75 73.7464 75 72.2V7.8C75 6.2536 73.7464 5 72.2 5ZM63.1001 44.9001H54.8651L47.1876 31.6001H47.6876C48.0554 31.6004 48.4196 31.5282 48.7595 31.3876C49.0994 31.247 49.4082 31.0408 49.6682 30.7807C49.9283 30.5207 50.1345 30.2119 50.2751 29.872C50.4157 29.5321 50.4879 29.1679 50.4876 28.8001V16.9001C50.4879 16.5323 50.4157 16.1681 50.2751 15.8282C50.1345 15.4883 49.9283 15.1795 49.6682 14.9195C49.4082 14.6594 49.0994 14.4532 48.7595 14.3126C48.4196 14.172 48.0554 14.0998 47.6876 14.1001H32.3001C31.9323 14.0998 31.5681 14.172 31.2282 14.3126C30.8883 14.4532 30.5795 14.6594 30.3195 14.9195C30.0594 15.1795 29.8532 15.4883 29.7126 15.8282C29.572 16.1681 29.4998 16.5323 29.5001 16.9001V28.8001C29.4998 29.1679 29.572 29.5321 29.7126 29.872C29.8532 30.2119 30.0594 30.5207 30.3195 30.7807C30.5795 31.0408 30.8883 31.247 31.2282 31.3876C31.5681 31.5282 31.9323 31.6004 32.3001 31.6001H32.8126L25.1351 44.9001H16.9001C16.5323 44.8998 16.1681 44.972 15.8282 45.1126C15.4883 45.2532 15.1795 45.4594 14.9195 45.7195C14.6594 45.9795 14.4532 46.2883 14.3126 46.6282C14.172 46.9681 14.0998 47.3323 14.1001 47.7001V59.6001C14.0998 59.9679 14.172 60.3321 14.3126 60.672C14.4532 61.0119 14.6594 61.3207 14.9195 61.5807C15.1795 61.8408 15.4883 62.047 15.8282 62.1876C16.1681 62.3282 16.5323 62.4004 16.9001 62.4001H32.3001C32.6679 62.4004 33.0321 62.3282 33.372 62.1876C33.7119 62.047 34.0207 61.8408 34.2807 61.5807C34.5408 61.3207 34.747 61.0119 34.8876 60.672C35.0282 60.3321 35.1004 59.9679 35.1001 59.6001V47.7001C35.1004 47.3323 35.0282 46.9681 34.8876 46.6282C34.747 46.2883 34.5408 45.9795 34.2807 45.7195C34.0207 45.4594 33.7119 45.2532 33.372 45.1126C33.0321 44.972 32.6679 44.8998 32.3001 44.9001H29.9826L37.6626 31.6001H42.3376L50.0151 44.9001H47.7001C47.3323 44.8998 46.9681 44.972 46.6282 45.1126C46.2883 45.2532 45.9795 45.4594 45.7195 45.7195C45.4594 45.9795 45.2532 46.2883 45.1126 46.6282C44.972 46.9681 44.8998 47.3323 44.9001 47.7001V59.6001C44.8998 59.9679 44.972 60.3321 45.1126 60.672C45.2532 61.0119 45.4594 61.3207 45.7195 61.5807C45.9795 61.8408 46.2883 62.047 46.6282 62.1876C46.9681 62.3282 47.3323 62.4004 47.7001 62.4001H63.1001C63.4679 62.4004 63.8321 62.3282 64.172 62.1876C64.5119 62.047 64.8207 61.8408 65.0807 61.5807C65.3408 61.3207 65.547 61.0119 65.6876 60.672C65.8282 60.3321 65.9004 59.9679 65.9001 59.6001V47.7001C65.9004 47.3323 65.8282 46.9681 65.6876 46.6282C65.547 46.2883 65.3408 45.9795 65.0807 45.7195C64.8207 45.4594 64.5119 45.2532 64.172 45.1126C63.8321 44.972 63.4679 44.8998 63.1001 44.9001Z" fill="white"/>
<path fill-rule="evenodd" clip-rule="evenodd" d="M49.7024 14.9524L49.7015 14.9533C49.9459 15.2062 50.1406 15.503 50.2751 15.8282C50.4157 16.1681 50.4879 16.5323 50.4876 16.9001V28.8001C50.4879 29.1679 50.4157 29.5321 50.2751 29.872C50.1345 30.2119 49.9283 30.5207 49.6682 30.7807C49.4082 31.0408 49.0994 31.247 48.7595 31.3876C48.4196 31.5282 48.0554 31.6004 47.6876 31.6001H47.1876L54.8651 44.9001H63.1001C63.4679 44.8998 63.8321 44.972 64.172 45.1126C64.5119 45.2532 64.8207 45.4594 65.0807 45.7195C65.3408 45.9795 65.547 46.2883 65.6876 46.6282C65.8282 46.9681 65.9004 47.3323 65.9001 47.7001V59.6001C65.9004 59.9679 65.8282 60.3321 65.6876 60.672C65.547 61.0119 65.3408 61.3207 65.0807 61.5807C64.8207 61.8408 64.5119 62.047 64.172 62.1876C63.8321 62.3282 63.4679 62.4004 63.1001 62.4001H47.7001C47.3323 62.4004 46.9681 62.3282 46.6282 62.1876C46.2883 62.047 45.9795 61.8408 45.7195 61.5807C45.4594 61.3207 45.2532 61.0119 45.1126 60.672C44.972 60.3321 44.8998 59.9679 44.9001 59.6001V47.7001C44.8998 47.3323 44.972 46.9681 45.1126 46.6282C45.2532 46.2883 45.4594 45.9795 45.7195 45.7195C45.9795 45.4594 46.2883 45.2532 46.6282 45.1126C46.9681 44.972 47.3323 44.8998 47.7001 44.9001H50.0151L42.3376 31.6001H37.6626L29.9826 44.9001H32.3001C32.6679 44.8998 33.0321 44.972 33.372 45.1126C33.7119 45.2532 34.0207 45.4594 34.2807 45.7195C34.5408 45.9795 34.747 46.2883 34.8876 46.6282C35.0282 46.9681 35.1004 47.3323 35.1001 47.7001V59.6001C35.1004 59.9679 35.0282 60.3321 34.8876 60.672C34.747 61.0119 34.5408 61.3207 34.2807 61.5807C34.0207 61.8408 33.7119 62.047 33.372 62.1876C33.0321 62.3282 32.6679 62.4004 32.3001 62.4001H16.9001C16.5323 62.4004 16.1681 62.3282 15.8282 62.1876C15.5337 62.0658 15.2625 61.8946 15.0261 61.6819L28.2899 74.9999H72.1999C72.5677 75.0002 72.9319 74.928 73.2718 74.7874C73.6117 74.6468 73.9205 74.4406 74.1805 74.1805C74.4406 73.9205 74.6468 73.6117 74.7874 73.2718C74.928 72.9319 75.0002 72.5677 74.9999 72.1999V40.2349L49.7024 14.9524Z" fill="white"/>
</svg>
