<svg width="80" height="80" viewBox="0 0 80 80" fill="none" xmlns="http://www.w3.org/2000/svg">
<path fill-rule="evenodd" clip-rule="evenodd" d="M28.8894 4.16675C21.3722 4.16675 15.2783 10.2606 15.2783 17.7778C15.2783 22.3656 17.5481 26.4232 21.0259 28.889C17.5481 31.3547 15.2783 35.4124 15.2783 40.0001C15.2783 44.5877 17.5481 48.6454 21.0259 51.1111C17.5481 53.5771 15.2783 57.6344 15.2783 62.2224C15.2783 69.7394 21.3722 75.8334 28.8894 75.8334C36.4067 75.8334 42.5007 69.7394 42.5007 62.2224V50.5414C44.8463 52.4601 47.8447 53.6111 51.1117 53.6111C58.629 53.6111 64.7227 47.5174 64.7227 40.0001C64.7227 35.4124 62.453 31.3547 58.9753 28.8889C62.453 26.4232 64.7227 22.3656 64.7227 17.7778C64.7227 10.2606 58.629 4.16675 51.1117 4.16675H28.8894ZM37.5007 48.6111H28.8894C24.1336 48.6111 20.2783 44.7557 20.2783 40.0001C20.2783 35.2444 24.1336 31.3889 28.8894 31.389L37.5007 31.3889V40.0001V48.6111ZM28.8894 26.389H37.5007V9.16675H28.8894C24.1336 9.16675 20.2783 13.0221 20.2783 17.7778C20.2783 22.5336 24.1336 26.389 28.8894 26.389ZM59.7227 17.7778C59.7227 22.5305 55.8723 26.384 51.121 26.389L46.8107 26.3889H42.5007V9.16675H51.1117C55.8673 9.16675 59.7227 13.0221 59.7227 17.7778ZM42.5007 39.9894C42.5063 35.2421 46.3537 31.3947 51.101 31.389H51.12C55.872 31.3934 59.7227 35.2471 59.7227 40.0001C59.7227 44.7557 55.8673 48.6111 51.1117 48.6111C46.3593 48.6111 42.5063 44.7614 42.5007 40.0107V39.9894ZM28.8894 53.6111C24.1336 53.6111 20.2783 57.4664 20.2783 62.2224C20.2783 66.9781 24.1336 70.8334 28.8894 70.8334C33.6453 70.8334 37.5007 66.9781 37.5007 62.2224V53.6111H28.8894Z" fill="white"/>
</svg>
