<svg width="80" height="80" viewBox="0 0 80 80" fill="none" xmlns="http://www.w3.org/2000/svg">
<g clip-path="url(#clip0_61_935)">
<path d="M17.7591 0.159351C18.732 -0.192891 19.8208 0.0494707 20.5525 0.781125L31.6387 11.8674C31.5753 11.964 31.5174 12.0659 31.4657 12.1729L11.6013 53.2716L17.7591 0.159351Z" fill="white"/>
<path d="M12.0632 63.6811L38.6282 79.6203C39.3429 80.0491 40.2168 80.1189 40.9906 79.8091L67.6573 69.1424C68.7703 68.6976 69.4498 67.5637 69.317 66.3723L63.9837 18.3722C63.8738 17.3815 63.2205 16.5348 62.2898 16.1774C61.3591 15.8199 60.3069 16.0114 59.5618 16.6736L50.735 24.5198L12.0632 63.6811Z" fill="white"/>
<path d="M47.6711 20.0321L42.2191 11.8542C41.7033 11.0805 40.8216 10.6313 39.8924 10.6689C38.9633 10.7065 38.1208 11.2255 37.6692 12.0384L36.017 15.0123L20.0923 47.96L47.6711 20.0321Z" fill="white"/>
</g>
<defs>
<clipPath id="clip0_61_935">
<rect width="80" height="80" fill="white"/>
</clipPath>
</defs>
</svg>
