<svg width="80" height="80" viewBox="0 0 80 80" fill="none" xmlns="http://www.w3.org/2000/svg">
<path fill-rule="evenodd" clip-rule="evenodd" d="M44.714 12.7614C42.1106 10.1579 37.8893 10.1579 35.286 12.7614L33.0473 15L38.2733 20.2258C38.824 20.0785 39.4026 20 40 20C43.682 20 46.6666 22.9847 46.6666 26.6666C46.6666 27.2638 46.588 27.8427 46.441 28.3934L53.2733 35.2256C53.824 35.0786 54.4026 35 55 35C58.682 35 61.6666 37.9846 61.6666 41.6666C61.6666 45.3486 58.682 48.3333 55 48.3333C51.318 48.3333 48.3333 45.3486 48.3333 41.6666C48.3333 41.0693 48.412 40.4906 48.559 39.94L43.3333 34.714V50.892C45.326 52.0446 46.6666 54.199 46.6666 56.6666C46.6666 60.3486 43.682 63.3333 40 63.3333C36.318 63.3333 33.3333 60.3486 33.3333 56.6666C33.3333 54.199 34.674 52.0446 36.6666 50.892V32.4414C34.674 31.2887 33.3333 29.1342 33.3333 26.6666C33.3333 26.0694 33.412 25.4906 33.559 24.9398L28.3333 19.714L12.7614 35.286C10.1579 37.8893 10.1579 42.1106 12.7614 44.714L35.286 67.2386C37.8893 69.842 42.1106 69.842 44.714 67.2386L67.2386 44.714C69.842 42.1106 69.842 37.8893 67.2386 35.286L44.714 12.7614ZM30.5719 8.04732C35.779 2.84033 44.221 2.84035 49.428 8.04735L71.9526 30.5719C77.1596 35.779 77.1596 44.221 71.9526 49.428L49.428 71.9526C44.221 77.1596 35.779 77.1596 30.5719 71.9526L8.04732 49.428C2.84033 44.221 2.84035 35.779 8.04735 30.5719L30.5719 8.04732Z" fill="white"/>
</svg>
