<svg width="80" height="80" viewBox="0 0 80 80" fill="none" xmlns="http://www.w3.org/2000/svg">
<path fill-rule="evenodd" clip-rule="evenodd" d="M40.1198 6.66677C27.2765 6.5501 16.7865 16.6668 16.6665 29.2701C16.5498 41.8768 26.8498 52.1768 39.6932 52.2934H47.7598V43.7401H40.1198C32.0965 43.8334 25.5198 37.5201 25.4265 29.6401C25.3298 21.7668 31.7632 15.3134 39.7865 15.2201H40.1198C48.1432 15.2201 54.6465 21.6034 54.6698 29.4801V50.4968C54.6698 58.3034 48.1898 64.6634 40.2598 64.7601C36.476 64.7333 32.8508 63.2368 30.1498 60.5868L23.9798 66.6468C28.2852 70.8761 34.0617 73.2727 40.0965 73.3334H40.4032C53.0798 73.1468 63.2632 63.0568 63.3332 50.6134V28.9468C63.0232 16.5434 52.7232 6.66677 40.1198 6.66677Z" fill="white"/>
</svg>
