<svg width="80" height="80" viewBox="0 0 80 80" fill="none" xmlns="http://www.w3.org/2000/svg">
<g clip-path="url(#clip0_61_959)">
<path fill-rule="evenodd" clip-rule="evenodd" d="M0.157564 0.078125C0.0685014 0.0910937 0.0750639 0.198437 0.0814701 0.305937C0.0814701 26.8166 0.0814701 53.3231 0.0814701 79.8331C26.5446 80.0105 53.3327 79.8584 79.9219 79.9091C79.9219 53.2983 79.9219 26.6887 79.9219 0.078125C53.3347 0.078125 26.7449 0.078125 0.157564 0.078125ZM40.6083 70.6511C38.7612 72.5134 35.8462 73.6102 32.2601 73.6102C26.3783 73.6102 23.1127 70.7445 21.0282 66.7803C23.0348 65.4991 25.0854 64.2612 27.1757 63.0623C28.0282 65.447 30.9079 68.128 34.1574 66.4775C36.2173 65.4308 35.9794 62.2572 35.9794 58.8128C35.9794 51.6608 35.9794 43.41 35.9794 36.9578C35.9729 36.8503 35.9665 36.743 36.0548 36.73C38.509 36.73 40.963 36.73 43.4166 36.73C43.4166 42.4781 43.4166 48.9803 43.4166 55.0939C43.4166 61.7498 43.8923 67.3419 40.6083 70.6511ZM73.5463 64.0495C73.1285 70.2814 68.0396 73.5906 61.176 73.6102C54.4476 73.6295 50.141 70.6394 47.5146 66.0216C49.4029 64.722 51.5424 63.6752 53.5107 62.4556C55.0857 64.9183 57.8133 67.2853 61.859 66.9325C64.3794 66.7128 67.3052 64.6583 65.6535 61.5447C64.8524 60.0353 62.9166 59.2686 61.176 58.5095C55.6522 56.0995 49.1716 53.8891 49.7915 45.2295C49.9988 42.3367 51.3308 40.3037 53.0554 38.8552C54.8227 37.3708 57.1898 36.3759 60.3412 36.2753C66.0644 36.092 69.2041 38.6378 71.3457 42.1947C69.5232 43.5839 67.5154 44.7897 65.5018 45.9886C64.841 43.9581 61.6512 41.9795 58.9749 43.1809C57.7579 43.7267 56.6643 45.3311 57.3055 47.2784C57.8774 49.0152 60.2101 49.9658 62.0866 50.7697C67.7666 53.2009 74.1143 55.577 73.5463 64.0495Z" fill="white"/>
</g>
<defs>
<clipPath id="clip0_61_959">
<rect width="80" height="80" fill="white"/>
</clipPath>
</defs>
</svg>
