<svg width="80" height="80" viewBox="0 0 80 80" fill="none" xmlns="http://www.w3.org/2000/svg">
<path d="M30.2996 32.5577C29.5607 30.9239 29.2295 29.0183 29.794 27.2872C30.3584 25.5173 31.6226 24.0977 32.8868 22.775C36.4063 19.2545 40.7438 16.668 44.1862 13.0897C46.0919 11.1252 47.6671 8.77188 48.2115 6.06828C48.659 4.08469 48.4452 2.04266 48.037 0.078125C49.8651 2.15922 50.468 5.13484 49.9427 7.81891C49.379 10.8333 47.7059 13.4977 45.7418 15.7925C44.1666 17.6405 42.3576 19.2741 40.4713 20.7914C38.2737 22.5613 36.1151 24.467 34.7345 26.9566C33.5669 28.9789 33.2946 31.4684 34.0923 33.6663C35.3955 37.4391 38.4291 40.2398 40.0826 43.7988C38.254 42.1844 36.4651 40.5119 34.792 38.7423C33.0423 36.8752 31.3888 34.8917 30.2996 32.5577ZM40.2184 29.6012C39.8879 32.6937 41.5016 35.6109 43.4276 37.9061C44.3607 38.9367 45.1582 40.2009 45.1968 41.6403C45.236 43.565 44.1474 45.355 42.7462 46.6186C43.0773 46.5802 43.3105 46.2881 43.5829 46.1327C45.6834 44.7906 47.7055 43.0986 48.7363 40.7847C49.4171 39.2092 49.2616 37.3419 48.3673 35.883C47.3166 34.1716 45.9362 32.6545 45.1195 30.7877C44.6715 29.7375 44.516 28.5123 44.8857 27.4038C45.3723 25.9064 46.4223 24.6809 47.531 23.6112C50.5841 20.7137 54.2793 18.6514 57.8191 16.3958C53.3459 17.6792 48.9312 19.4492 45.1582 22.2306C42.7659 24.0198 40.5491 26.5091 40.2184 29.6012ZM61.476 44.2269C63.596 44.3438 65.6763 45.8994 66.0657 48.0389C66.4354 49.8866 65.541 51.7145 64.393 53.1147C62.5063 55.3706 59.9584 56.9852 57.3919 58.3661C57.1385 58.5209 56.9248 58.7156 56.7302 58.9298C60.1145 58.0739 63.498 56.7909 66.2407 54.593C67.7571 53.3287 69.0991 51.6556 69.3912 49.6525C69.6635 47.9219 68.9443 46.1325 67.6604 44.9852C66.1041 43.5648 63.9071 43.0402 61.8451 43.3127C60.6587 43.4681 59.3559 43.7209 58.5391 44.7128C59.512 44.5189 60.4641 44.1295 61.476 44.2269ZM19.253 49.7886C21.8004 50.4694 24.4262 50.6641 27.0323 50.8392C29.366 50.9947 31.7002 51.0339 34.0537 51.0142C40.1213 50.9175 46.228 50.5086 52.1791 49.1862C52.7429 49.0503 53.3655 48.953 53.8718 48.603C54.8635 47.9608 55.952 47.455 57.0221 46.9494C52.1791 47.7273 47.3169 48.3892 42.4162 48.7002C37.4568 49.0112 32.4582 49.2058 27.4798 48.8753C26.0601 48.7394 24.6012 48.6611 23.2788 48.1162C22.9673 47.9803 22.5393 47.7086 22.6948 47.2995C22.9868 46.7744 23.5702 46.5219 24.0759 46.2495C26.2155 45.2381 28.5491 44.6744 30.8248 44.0131C26.9152 43.9544 23.0254 44.9461 19.4476 46.4828C18.6499 46.872 17.7554 47.183 17.1138 47.8444C16.8604 48.1161 16.8604 48.5837 17.1524 48.8166C17.736 49.3417 18.5135 49.575 19.253 49.7886ZM50.7599 55.1375C47.3562 55.7405 43.9327 56.305 40.4902 56.4795C36.7173 56.7323 32.9443 56.5181 29.2104 56.1294C28.491 56.032 27.7712 55.9156 27.1296 55.5852C26.799 55.3905 26.4685 55.0795 26.488 54.6705C26.5266 54.0289 27.0709 53.5819 27.4602 53.1148C26.2548 53.5428 25.0487 53.9897 24.0374 54.788C23.609 55.1186 23.1815 55.6433 23.2979 56.2267C23.4737 56.9073 24.1348 57.3158 24.7182 57.6267C26.157 58.3662 27.7713 58.6964 29.3471 58.9883C33.3332 59.6305 37.3982 59.65 41.4045 59.377C45.6452 59.0466 49.8651 58.3467 53.9687 57.1406C52.8018 56.6159 51.693 56.0123 50.7599 55.1375ZM29.3855 61.8673C28.2965 62.1783 27.1877 62.5481 26.2934 63.2669C25.8452 63.617 25.4957 64.2206 25.7099 64.7845C25.9823 65.5039 26.663 65.9325 27.3041 66.3009C28.9773 67.2156 30.8635 67.643 32.711 67.9741C36.893 68.6348 41.1907 68.5378 45.3529 67.7991C47.8226 67.332 50.2927 66.6708 52.5874 65.6405C51.0899 65.018 49.6316 64.3175 48.2315 63.5009C45.8004 63.9287 43.3493 64.3764 40.8599 64.5319C37.5737 64.7847 34.2476 64.5123 30.9607 64.1041C30.1826 63.9289 29.2104 63.8512 28.6852 63.1703C28.4135 62.6058 29.0355 62.1973 29.3855 61.8673ZM55.9913 74.3722C58.7138 73.8091 61.4565 73.1661 63.9457 71.9025C64.7232 71.4545 65.6763 70.9683 65.9298 70.0353C66.0657 69.1408 65.1321 68.6738 64.4709 68.3041C64.8791 68.7717 65.1515 69.452 64.7427 69.9963C64.062 70.9108 62.8957 71.2605 61.8646 71.6106C58.6365 72.5247 55.2909 72.8944 51.9654 73.2641C43.1552 74.0612 34.2863 74.2559 25.4766 73.5169C22.5204 73.2053 19.5052 72.8748 16.6854 71.8248C16.2385 71.6302 15.5577 71.4355 15.5577 70.8323C15.7323 70.3083 16.2385 70.0156 16.6854 69.7628C18.708 68.7323 20.9641 68.168 23.2201 68.032C22.5595 67.6428 21.7813 67.6042 21.0229 67.6237C19.136 67.682 17.2885 68.168 15.4996 68.7717C13.963 69.3348 12.3877 69.9577 11.1621 71.0859C10.676 71.5133 10.2291 72.33 10.7341 72.9139C11.5123 73.7503 12.7184 73.9639 13.7873 74.2167C19.7776 75.2478 25.8452 75.8305 31.914 76.0447C39.9657 76.2787 48.0755 75.9284 55.9913 74.3722ZM63.9652 75.4228C60.3087 76.5897 56.5165 77.2312 52.743 77.7566C46.228 78.5733 39.6541 78.8261 33.0999 78.632C29.1132 78.4766 25.1265 78.2042 21.1974 77.5423C22.1115 78.1648 23.2398 78.3591 24.2902 78.6511C28.7054 79.5848 33.2363 79.7598 37.7293 79.8958C44.3215 80.0127 50.9148 79.7598 57.4109 78.7289C60.4841 78.1852 63.5763 77.5234 66.3374 76.0841C67.7773 75.3256 69.2362 74.1581 69.4879 72.4666C68.0298 74.022 65.9298 74.742 63.9652 75.4228Z" fill="white"/>
</svg>
