<svg width="48" height="48" viewBox="0 0 48 48" fill="none" xmlns="http://www.w3.org/2000/svg">
<path d="M21.1801 26.82C22.0001 27.6 22.0001 28.88 21.1801 29.66C20.4001 30.44 19.1201 30.44 18.3401 29.66C14.4401 25.76 14.4401 19.42 18.3401 15.52L25.4201 8.44001C29.3201 4.54001 35.6601 4.54001 39.5601 8.44001C43.4601 12.34 43.4601 18.68 39.5601 22.58L36.5801 25.56C36.6001 23.92 36.3401 22.28 35.7801 20.72L36.7201 19.76C39.0801 17.42 39.0801 13.62 36.7201 11.28C34.3801 8.92002 30.5801 8.92002 28.2401 11.28L21.1801 18.34C18.8201 20.68 18.8201 24.48 21.1801 26.82ZM26.8201 18.34C27.6001 17.56 28.8801 17.56 29.6601 18.34C33.5601 22.24 33.5601 28.58 29.6601 32.48L22.5801 39.56C18.6801 43.46 12.3401 43.46 8.44014 39.56C4.54014 35.66 4.54014 29.32 8.44014 25.42L11.4201 22.44C11.4001 24.08 11.6601 25.72 12.2201 27.3L11.2801 28.24C8.92014 30.58 8.92014 34.38 11.2801 36.72C13.6201 39.08 17.4201 39.08 19.7601 36.72L26.8201 29.66C29.1801 27.32 29.1801 23.52 26.8201 21.18C26.0001 20.4 26.0001 19.12 26.8201 18.34Z" fill="white"/>
</svg>
