<svg width="80" height="80" viewBox="0 0 80 80" fill="none" xmlns="http://www.w3.org/2000/svg">
<path d="M39.5524 57.9625C39.5524 57.9625 39.5524 32.0599 40.4124 32.0625C41.0774 32.0625 41.9424 65.475 41.9424 65.475C40.7524 65.335 39.5524 59.9775 39.5524 57.9625ZM56.2224 32.3624C53.9249 22.3225 48.8924 13.69 41.9524 7.02745L41.9349 7.01245C41.0899 5.72245 40.3174 4.24245 39.6974 2.68245L39.6374 2.51245C39.6399 2.56245 39.6399 2.62245 39.6399 2.68245C39.6399 4.09495 39.0074 5.35745 38.0099 6.20495L38.0024 6.20995C29.0674 13.795 23.3824 24.9725 23.1949 37.4799V37.5125C23.1924 37.6674 23.1924 37.85 23.1924 38.0325C23.1924 50.4249 29.1549 61.4249 38.3674 68.32L38.4649 68.39L38.6824 68.5475C39.084 71.5208 39.4274 74.5008 39.7124 77.4875H41.2149C41.6299 73.76 42.1899 70.4975 42.9224 67.2975L42.8074 67.895C43.7974 67.2075 44.6624 66.495 45.4699 65.7225L45.4624 65.73C52.4649 59.2375 56.8349 49.9874 56.8349 39.7199C56.8349 39.5675 56.8349 39.4174 56.8324 39.265V39.2875C56.8249 36.8349 56.6024 34.4375 56.1799 32.11L56.2174 32.3575L56.2224 32.3624Z" fill="white"/>
</svg>
