<svg width="80" height="80" viewBox="0 0 80 80" fill="none" xmlns="http://www.w3.org/2000/svg">
<g clip-path="url(#clip0_61_929)">
<path d="M80.4299 78.0401L78.7366 76.4268C77.8999 75.3234 77.0099 74.3468 76.0399 73.4568L76.0232 73.4434C75.0277 72.539 73.9932 71.679 72.9199 70.8634C72.0599 70.2723 70.8777 69.5601 69.3732 68.7268C68.1366 68.1701 67.1699 67.1934 66.6466 65.9801L66.6332 65.9468L66.4732 65.8668C67.1799 65.7968 67.8266 65.6668 68.4466 65.4834L68.3699 65.5034L70.2699 64.9801C71.0566 64.7334 71.9666 64.5734 72.9099 64.5368H72.9299C73.9232 64.4968 74.8599 64.3368 75.7532 64.0734L75.6699 64.0934C76.101 63.9868 76.5443 63.8656 76.9999 63.7301C77.4555 63.5945 77.8455 63.4734 78.1699 63.3668V62.8034C77.8477 62.3212 77.4577 61.7701 76.9999 61.1501C76.5632 60.5568 76.0732 60.0401 75.5232 59.5901L75.5066 59.5768C74.1088 58.3412 72.661 57.1456 71.1632 55.9901C69.8432 54.9601 68.3466 53.9101 66.7932 52.9368L66.5666 52.8034C65.7466 52.2634 64.8066 51.7634 63.8166 51.3534L63.7032 51.3134C62.7077 50.909 61.7266 50.4656 60.7599 49.9834C60.4366 49.8234 60.0599 49.6834 59.6699 49.5868L59.6332 49.5801C59.2432 49.5001 58.9099 49.3001 58.6666 49.0168L58.6632 49.0134C58.2032 48.4068 57.7999 47.7168 57.4799 46.9834L57.4532 46.9168C57.131 46.1634 56.7821 45.4401 56.4066 44.7467C55.5999 43.1868 54.8199 41.6012 54.0666 39.9901C53.3132 38.379 52.5899 36.7656 51.8966 35.1501C51.4143 34.0745 50.971 33.0001 50.5666 31.9268C50.1199 30.7468 49.6166 29.7367 49.0299 28.7868L49.0732 28.8634C47.6332 26.4101 46.1966 24.3168 44.6366 22.3268L44.7299 22.4534C43.1866 20.5068 41.5866 18.7668 39.8666 17.1534L39.8399 17.1301C38.1432 15.5368 36.3166 14.0168 34.3999 12.6101L34.2366 12.4934C32.2455 11.0468 30.0677 9.62231 27.7032 8.22009C26.7532 7.66009 25.6499 7.20342 24.4866 6.91009L24.3999 6.89008L20.6899 5.96342L18.5932 5.80342C17.8955 5.75008 17.1966 5.72342 16.4966 5.72342C16.0032 5.46342 15.5799 5.15342 15.2066 4.79342C14.8399 4.44342 14.4432 4.11342 14.0299 3.81008L13.9966 3.78675C11.9799 2.61008 9.63657 1.53342 7.18657 0.686751L6.90324 0.600085C6.25991 0.223418 5.48657 0.00341797 4.66324 0.00341797C4.07657 0.00341797 3.51324 0.116751 2.99991 0.320085L3.02991 0.310085C1.76324 0.813418 0.796572 1.83675 0.379906 3.11009L0.369906 3.14342C0.126572 3.71675 -0.0134277 4.38008 -0.0134277 5.08008C-0.0134277 6.30675 0.419906 7.43009 1.14324 8.30675L1.13657 8.29675C2.34546 9.90786 3.27213 11.1745 3.91657 12.0968C4.39879 12.7434 4.89657 13.4156 5.40991 14.1134C5.87991 14.7401 6.29657 15.4568 6.63324 16.2134L6.65991 16.2834C6.84657 16.6801 7.0099 17.1534 7.12991 17.6401L7.1399 17.6934C7.24657 18.1512 7.38102 18.649 7.54324 19.1868C8.02546 20.4223 8.48213 21.689 8.91324 22.9868C9.38324 24.4034 9.90324 25.6034 10.5066 26.7468L10.4432 26.6134C10.7655 27.2045 11.0888 27.7823 11.4132 28.3468C11.7377 28.9112 12.0866 29.4623 12.4599 30.0001C12.6766 30.3268 12.9499 30.5968 13.2632 30.8067L13.2732 30.8134C13.6032 31.0534 13.8199 31.4301 13.8366 31.8568C13.4566 32.4168 13.1999 33.0901 13.1132 33.8134L13.1099 33.8334C12.9932 34.6768 12.8266 35.4268 12.5999 36.1501L12.6266 36.0501C11.8832 38.2701 11.4566 40.8301 11.4566 43.4868C11.4566 44.3468 11.4999 45.1934 11.5899 46.0301L11.5799 45.9268C11.7799 49.1201 12.7432 52.0534 14.2866 54.5934L14.2399 54.5101C14.8966 55.4934 15.5999 56.3501 16.3766 57.1334C16.9366 57.7601 17.7499 58.1534 18.6566 58.1534C19.1632 58.1534 19.6432 58.0301 20.0632 57.8101L20.0466 57.8168C21.2132 57.3968 22.0432 56.3301 22.1032 55.0601V55.0534C22.2632 53.4734 22.5032 52.0601 22.8332 50.6801L22.7899 50.9034C22.8699 50.6934 22.9166 50.4534 22.9166 50.2001C22.9166 50.1501 22.9132 50.1001 22.9099 50.0501V50.0568C22.8832 49.8145 23.031 49.5856 23.3532 49.3701V49.5301C23.6755 50.2834 24.011 51.0356 24.3599 51.7868C24.7088 52.5379 25.071 53.2901 25.4466 54.0434C26.4299 55.5401 27.4732 56.8468 28.6199 58.0501L28.6099 58.0401C29.7599 59.2801 31.0132 60.3934 32.3666 61.3768L32.4399 61.4268C33.1466 61.9668 33.7666 62.5501 34.3266 63.1868L34.3399 63.2001C34.8666 63.8201 35.4966 64.3301 36.2066 64.7134L36.2399 64.7301V64.6501H36.3999C36.2699 64.3601 36.0599 64.1268 35.7999 63.9668L35.7932 63.9634C35.5299 63.8168 35.3032 63.6701 35.0899 63.5101L35.1066 63.5201C34.6243 63.0379 34.1266 62.5001 33.6132 61.9068C33.0999 61.3134 32.6299 60.749 32.2032 60.2134C31.0743 58.6534 29.9977 57.0234 28.9732 55.3234C27.9488 53.6234 26.981 51.8956 26.0699 50.1401C25.6388 49.2801 25.2221 48.3934 24.8199 47.4801C24.4177 46.5668 24.0277 45.6801 23.6499 44.8201C23.4866 44.4901 23.3732 44.1101 23.3299 43.7068V43.6901C23.3099 43.3068 23.0899 42.9768 22.7699 42.8068L22.7632 42.8034C22.3599 43.4901 21.9132 44.0834 21.4032 44.6201L21.4066 44.6168C20.8766 45.1734 20.4432 45.8301 20.1332 46.5501L20.1166 46.5934C19.6466 47.7334 19.3032 49.0568 19.1532 50.4401L19.1466 50.5034C18.9866 51.9279 18.8255 53.3923 18.6632 54.8968L18.5032 54.9768L18.4232 55.0568C17.5566 54.8801 16.8432 54.3268 16.4566 53.5801L16.4499 53.5634C16.0455 52.7834 15.6832 52.0168 15.3632 51.2634C14.5366 49.1401 14.0232 46.6834 13.9532 44.1168V44.0868C13.9232 43.6801 13.9099 43.2034 13.9099 42.7268C13.9099 40.5068 14.2599 38.3668 14.9066 36.3601L14.8666 36.5068C15.0266 35.9156 15.3755 34.9201 15.9132 33.5201C16.451 32.1201 16.5588 31.1523 16.2366 30.6168C16.0699 30.0668 15.7599 29.6034 15.3532 29.2501L15.3499 29.2468C14.9432 28.8934 14.5732 28.5234 14.2332 28.1301L14.2232 28.1168C13.8477 27.5745 13.4855 26.9968 13.1366 26.3834C12.7877 25.7701 12.4788 25.1656 12.2099 24.5701C11.6599 23.2968 11.0966 21.7001 10.6299 20.0601L10.5566 19.7634C10.0266 17.8801 9.43657 16.2868 8.73657 14.7534L8.82324 14.9668C8.45324 14.1268 8.02324 13.4001 7.52324 12.7368L7.54324 12.7634C7.00102 12.039 6.51657 11.3534 6.08991 10.7068C5.54768 10.009 5.00991 9.33675 4.47657 8.69009C3.93324 8.03342 3.44991 7.29342 3.05657 6.50008L3.02657 6.43342C2.86657 6.11008 2.72657 5.73342 2.62991 5.34342L2.62324 5.30675C2.58657 5.19008 2.56657 5.05342 2.56657 4.91675C2.56657 4.64342 2.64657 4.38675 2.78657 4.17342L2.78324 4.18008C2.81991 3.99342 2.90657 3.83008 3.02657 3.69675C3.15657 3.58008 3.32324 3.49342 3.50324 3.45675H3.50991C3.79324 3.27342 4.13657 3.16342 4.50991 3.16342C4.78991 3.16342 5.05991 3.22675 5.29657 3.34008L5.28657 3.33675C6.01657 3.54342 6.60657 3.75008 7.18324 3.98675L7.06324 3.94342C8.08324 4.37453 9.02435 4.7912 9.88657 5.19342C10.8799 5.66675 11.7266 6.16675 12.5266 6.72342L12.4666 6.68342C12.8977 6.95231 13.3277 7.24786 13.7566 7.57009C14.1855 7.89231 14.6421 8.21564 15.1266 8.54009H16.2566C17.1166 8.54009 18.0299 8.5812 18.9966 8.66342C19.9732 8.74009 20.8766 8.92342 21.7366 9.21008L21.6566 9.18675C23.2599 9.66342 24.6366 10.2268 25.9432 10.9034L25.8066 10.8401C27.1243 11.5112 28.3743 12.2234 29.5566 12.9768C31.5199 14.2001 33.2166 15.4534 34.8132 16.8234L34.7566 16.7768C36.4232 18.2034 37.9366 19.6668 39.3566 21.2134L39.3899 21.2534C40.7766 22.7668 42.0999 24.4101 43.3099 26.1334L43.4132 26.2901C44.5266 27.8634 45.6499 29.6834 46.6599 31.5701L46.7999 31.8534C47.0699 32.3667 47.3432 32.9967 47.5799 33.6401L47.6166 33.7501C47.8321 34.3679 48.0732 35.0012 48.3399 35.6501C48.931 36.9945 49.5643 38.3512 50.2399 39.7201C50.9155 41.089 51.5488 42.4201 52.1399 43.7134L53.9132 47.5834C54.5366 48.9368 55.2332 50.1034 56.0432 51.1801L56.0066 51.1301C56.6832 51.8534 57.5866 52.3601 58.5999 52.5368L58.6266 52.5401C59.8532 52.8468 60.8866 53.1934 61.8866 53.6034L61.7299 53.5468C62.2066 53.7634 62.8199 53.9934 63.4499 54.1968L63.5832 54.2334C64.2899 54.4501 64.9032 54.7368 65.4666 55.0968L65.4366 55.0801C66.5266 55.6901 67.4499 56.2901 68.3299 56.9434L68.2599 56.8934C69.1732 57.5645 70.0866 58.1979 70.9999 58.7934C71.431 59.1156 72.1544 59.5856 73.1699 60.2034C74.1855 60.8212 74.7232 61.399 74.7832 61.9368C74.4032 61.9234 73.9532 61.9134 73.5032 61.9134C71.8632 61.9134 70.2499 62.0201 68.6699 62.2268L68.8566 62.2068C67.0699 62.4468 65.4499 62.8834 63.9266 63.5068L64.0599 63.4601C63.6832 63.6234 63.2332 63.7734 62.7666 63.8901L62.7032 63.9034C62.2299 63.9734 61.8632 64.3534 61.8166 64.8268C62.0199 65.0801 62.1832 65.3768 62.2932 65.6968L62.2999 65.7168C62.4132 66.0568 62.5499 66.3501 62.7166 66.6234L62.7066 66.6034C63.1032 67.3068 63.5299 67.9134 64.0099 68.4734L63.9966 68.4568C64.4666 69.0368 64.9966 69.5401 65.5832 69.9701L65.6066 69.9868C66.1488 70.4179 66.7132 70.8612 67.2999 71.3168C67.8366 71.7368 68.4432 72.1501 69.0732 72.5234L69.1532 72.5668C70.0999 73.1468 71.1999 73.7001 72.3466 74.1634L72.4999 74.2168C73.7466 74.7168 74.8166 75.2968 75.8099 75.9868L75.7566 75.9501C76.4032 76.3256 77.0477 76.7423 77.6899 77.2001C78.3321 77.6579 78.9499 78.1012 79.5432 78.5301C79.7866 78.7701 79.9999 79.0368 80.1799 79.3268L80.1899 79.3434C80.4932 79.6901 80.9132 79.9268 81.3899 79.9868H81.3999V79.8268C81.1066 79.6034 80.8899 79.2934 80.7866 78.9368L80.7832 78.9234C80.6999 78.5834 80.5766 78.2868 80.4099 78.0134L80.4166 78.0268L80.4299 78.0401ZM18.5099 14.0234C18.0788 14.0234 17.6755 14.0368 17.2999 14.0634C16.9166 14.0901 16.5599 14.1601 16.2232 14.2734L16.2532 14.2634V14.3434H16.4132C16.6288 14.6656 16.8999 15.0279 17.2266 15.4301C17.5532 15.8323 17.8488 16.2223 18.1132 16.6001L19.4032 19.2601L19.5632 19.1801C19.9399 18.9068 20.2299 18.5401 20.4032 18.1101L20.4099 18.0934C20.5832 17.6301 20.6832 17.0901 20.6832 16.5301C20.6832 16.4701 20.6832 16.4101 20.6799 16.3501V16.3601C20.5299 16.2134 20.4066 16.0401 20.3199 15.8468L20.3166 15.8368L20.0466 15.2301C19.8699 14.9501 19.6232 14.7301 19.3332 14.5901L19.3232 14.5868C19.0099 14.4368 18.7432 14.2468 18.5099 14.0234Z" fill="white"/>
</g>
<defs>
<clipPath id="clip0_61_929">
<rect width="80" height="80" fill="white"/>
</clipPath>
</defs>
</svg>
