<svg width="80" height="80" viewBox="0 0 80 80" fill="none" xmlns="http://www.w3.org/2000/svg">
<g clip-path="url(#clip0_61_943)">
<path d="M70.5001 19.6666L42.8334 3.99996C41.9469 3.58372 40.9795 3.36792 40.0001 3.36792C39.0207 3.36792 38.0533 3.58372 37.1667 3.99996L9.50008 19.6666C8.64943 20.1576 7.94102 20.8613 7.4443 21.7086C6.94759 22.556 6.67965 23.5179 6.66675 24.5V55.5C6.67965 56.4821 6.94759 57.444 7.4443 58.2913C7.94102 59.1386 8.64943 59.8423 9.50008 60.3333L16.8334 64.5C18.7492 65.632 20.9419 66.209 23.1667 66.1666C28.3334 66.1666 31.3334 63 31.3334 57.6666V27.1666C31.3334 26.9456 31.2456 26.7337 31.0893 26.5774C30.9331 26.4211 30.7211 26.3333 30.5001 26.3333H27.0001C26.7791 26.3333 26.5671 26.4211 26.4108 26.5774C26.2545 26.7337 26.1667 26.9456 26.1667 27.1666V57.6666C26.1667 60.1666 23.6667 62.5 19.6667 60.5L12.0001 56.1666C11.8966 56.089 11.8126 55.9884 11.7547 55.8726C11.6969 55.7569 11.6667 55.6293 11.6667 55.5V24.5C11.6782 24.192 11.796 23.8975 12.0001 23.6666L39.5001 8.16663H40.5001L68.0001 23.6666C68.2042 23.8975 68.3219 24.192 68.3334 24.5V55.5C68.3334 55.6293 68.3033 55.7569 68.2454 55.8726C68.1876 55.9884 68.1036 56.089 68.0001 56.1666L40.5001 71.6666C40.3481 71.7544 40.1756 71.8006 40.0001 71.8006C39.8245 71.8006 39.6521 71.7544 39.5001 71.6666L32.5001 67.6666C32.4084 67.5846 32.2897 67.5393 32.1667 67.5393C32.0438 67.5393 31.9251 67.5846 31.8334 67.6666L27.6667 69.5C27.1667 69.6666 26.5001 69.8333 27.8334 70.6666L37.1667 75.8333C38.0086 76.3854 38.9934 76.6795 40.0001 76.6795C41.0068 76.6795 41.9916 76.3854 42.8334 75.8333L70.5001 60.3333C71.3507 59.8423 72.0591 59.1386 72.5559 58.2913C73.0526 57.444 73.3205 56.4821 73.3334 55.5V24.5C73.3205 23.5179 73.0526 22.556 72.5559 21.7086C72.0591 20.8613 71.3507 20.1576 70.5001 19.6666Z" fill="white"/>
<path d="M48.5 50.5C41.1667 50.5 39.6667 48.8333 39 45.3333C39 45.1565 38.9298 44.987 38.8047 44.8619C38.6797 44.7369 38.5101 44.6667 38.3333 44.6667H34.6667C34.4899 44.6667 34.3203 44.7369 34.1953 44.8619C34.0702 44.987 34 45.1565 34 45.3333C34 49.8333 36.5 55.3333 48.5 55.3333C57.1667 55.3333 62.1667 52 62.1667 46.1667C62.1667 40.3333 58.1667 38.6667 49.6667 37.6667C41.1667 36.6667 40.3333 36 40.3333 34C40.3333 32 41 30.3333 47.3333 30.3333C53.6667 30.3333 55.1667 31.5 56 35.1667C56.039 35.3577 56.1437 35.5291 56.296 35.6509C56.4482 35.7727 56.6384 35.8373 56.8333 35.8333H60.3333L61 35.5C61.0603 35.4324 61.1062 35.3531 61.1348 35.2672C61.1635 35.1812 61.1743 35.0903 61.1667 35C60.6667 28.5 56.1667 25.5 47.3333 25.5C38.5 25.5 34.8333 28.8333 34.8333 34.1667C34.8333 39.5 39.5 41.6667 47 42.5C54.5 43.3333 56.8333 44.5 56.8333 46.3333C56.8333 48.1667 54.3333 50.5 48.5 50.5Z" fill="white"/>
</g>
<defs>
<clipPath id="clip0_61_943">
<rect width="80" height="80" fill="white"/>
</clipPath>
</defs>
</svg>
