<svg width="80" height="80" viewBox="0 0 80 80" fill="none" xmlns="http://www.w3.org/2000/svg">
<path d="M35.7825 55.5276C37.1575 55.5901 38.5625 55.6351 39.985 55.6351C41.4225 55.6351 42.8425 55.6051 44.235 55.5276C42.8425 57.3276 41.4674 58.9201 40.0124 60.4376L40.0325 60.4176C38.585 58.9176 37.195 57.3226 35.885 55.6626L35.7825 55.5276ZM21.5375 53.5276C24.2449 54.2151 27.5474 54.8001 30.9174 55.1601L31.245 55.1876C33.3075 58.0201 35.3925 60.5126 37.63 62.8576L37.6025 62.8276C34.325 66.4851 29.9025 69.0551 24.9 69.9776L24.7625 69.9976C24.7525 69.9976 24.7425 69.9976 24.7325 69.9976C24.1124 69.9976 23.5275 69.8451 23.015 69.5751L23.035 69.5851C20.955 68.3976 20.0525 63.8551 20.755 58.0176C20.9225 56.5801 21.1975 55.0676 21.535 53.5251L21.5375 53.5276ZM58.495 53.4951C58.79 54.6801 59.0675 56.1901 59.265 57.7251L59.2875 57.9401C60.005 63.7751 59.12 68.3126 57.0575 69.5251C56.5975 69.7801 56.0475 69.9301 55.4625 69.9301C55.405 69.9301 55.3475 69.9276 55.29 69.9251H55.2975C50.165 68.9876 45.7449 66.4351 42.4749 62.8226L42.4575 62.8026C44.6549 60.4951 46.725 58.0076 48.6225 55.3901L48.7675 55.1801C52.4575 54.7951 55.7649 54.2001 58.9874 53.3876L58.495 53.4926V53.4951ZM24.46 44.1651C25.085 45.3901 25.74 46.6101 26.4599 47.8351C27.1783 49.0534 27.9125 50.2434 28.6625 51.4051C26.4925 51.0876 24.3975 50.6876 22.395 50.2001C22.9575 48.2326 23.6625 46.1951 24.4575 44.1601L24.46 44.1651ZM55.53 44.1026C56.3575 46.1551 57.06 48.2026 57.6425 50.1876C55.6425 50.6776 53.53 51.0926 51.345 51.4051C52.095 50.2326 52.845 49.0251 53.5475 47.7876C54.25 46.5701 54.9075 45.3251 55.535 44.1001L55.53 44.1026ZM19.0475 30.7301C20.1375 34.4251 21.3075 37.5151 22.67 40.4951L22.4825 40.0401C21.3175 42.5526 20.165 45.6251 19.22 48.7876L19.09 49.3001C17.325 48.7576 15.905 48.2251 14.5225 47.6276L14.8099 47.7376C9.39995 45.4351 5.89995 42.4076 5.89995 40.0076C5.89995 37.6076 9.39995 34.5651 14.8099 32.2726C16.1224 31.7101 17.5625 31.2026 19.0475 30.7301ZM60.895 30.7176C62.4075 31.1851 63.845 31.7076 65.19 32.2726C70.6 34.5851 74.1 37.6076 74.1 40.0076C74.085 42.4076 70.585 45.4426 65.175 47.7401C63.8625 48.3026 62.425 48.8076 60.9425 49.2801C59.8425 45.5726 58.6725 42.4851 57.315 39.5001L57.505 39.9701C58.665 37.4601 59.82 34.3876 60.7625 31.2251L60.895 30.7101V30.7176ZM51.325 28.6101C53.4975 28.9326 55.59 29.3276 57.5925 29.8201C57.03 31.7951 56.3275 33.8251 55.53 35.8601C54.905 34.6426 54.25 33.4151 53.53 32.1926C52.8275 30.9676 52.0775 29.7751 51.3275 28.6126L51.325 28.6101ZM28.645 28.6101C27.895 29.7876 27.145 30.9926 26.445 32.2351C25.7425 33.4526 25.085 34.6776 24.46 35.9026C23.6325 33.8526 22.93 31.8101 22.3475 29.8201C24.3475 29.3526 26.455 28.9351 28.6425 28.6151L28.645 28.6101ZM40 27.8151C42.3125 27.8151 44.615 27.9201 46.88 28.1051C48.1483 29.9234 49.38 31.8601 50.575 33.9151C51.7366 35.9151 52.7966 37.9418 53.755 39.9951C52.7925 42.0426 51.7375 44.0876 50.59 46.0876C49.4025 48.1501 48.175 50.1126 46.9025 51.9301C44.6275 52.1276 42.3224 52.2351 39.9975 52.2351C37.6849 52.2351 35.3825 52.1251 33.1175 51.9451C31.85 50.1276 30.6125 48.1826 29.4225 46.1351C28.2608 44.1351 27.2008 42.1084 26.2425 40.0551C27.19 38.0026 28.26 35.9526 29.4074 33.9501C30.5949 31.8876 31.8225 29.9326 33.095 28.1151C35.3699 27.9151 37.6749 27.8101 40 27.8101V27.8151ZM39.9524 19.6126C41.4025 21.1126 42.7924 22.7051 44.1 24.3651L44.2 24.4976C42.825 24.4351 41.4199 24.3926 39.9975 24.3926C38.56 24.3926 37.1399 24.4226 35.7475 24.4976C37.1375 22.6976 38.5125 21.1051 39.97 19.5876L39.95 19.6076L39.9524 19.6126ZM24.7 10.0826C29.8325 11.0226 34.25 13.5751 37.5224 17.1851L37.54 17.2051C35.3424 19.5151 33.2725 22.0026 31.375 24.6251L31.2299 24.8351C27.5424 25.2176 24.235 25.8076 21.015 26.6201L21.505 26.5151C21.155 24.9851 20.895 23.5026 20.7125 22.0801C19.995 16.2451 20.88 11.7076 22.9425 10.5001C23.4575 10.2576 24.06 10.1076 24.695 10.0876H24.7024L24.7 10.0826ZM55.225 10.0201V10.0401C55.2575 10.0401 55.295 10.0376 55.335 10.0376C55.9325 10.0376 56.495 10.1851 56.99 10.4451L56.97 10.4351C59.05 11.6276 59.9525 16.1676 59.25 22.0076C59.0825 23.4451 58.8075 24.9601 58.47 26.5051C55.7575 25.8101 52.455 25.2226 49.085 24.8651L48.765 24.8376C46.7 22.0026 44.615 19.5101 42.3775 17.1626L42.4074 17.1926C45.6849 13.5426 50.1 10.9726 55.0925 10.0451L55.2325 10.0226L55.225 10.0201ZM55.24 6.61511C49.135 7.54261 43.85 10.5076 39.99 14.7851L39.97 14.8076C36.0825 10.5326 30.7975 7.58761 24.8425 6.69511L24.7024 6.67761C24.67 6.67761 24.63 6.67761 24.59 6.67761C23.3625 6.67761 22.2099 7.00011 21.2125 7.56511L21.2474 7.54761C16.9524 10.0251 15.99 17.7451 18.2075 27.4326C8.69745 30.3701 2.51245 35.0651 2.51245 40.0126C2.51245 44.9801 8.72995 49.6876 18.2675 52.6026C16.0675 62.3276 17.05 70.0601 21.3549 72.5351C22.2999 73.0776 23.435 73.3951 24.6425 73.3951C24.6975 73.3951 24.7525 73.3951 24.805 73.3926H24.7975C30.9025 72.4651 36.1875 69.4976 40.0474 65.2176L40.0675 65.1951C43.955 69.4726 49.24 72.4176 55.195 73.3101L55.335 73.3276C55.3725 73.3276 55.42 73.3276 55.465 73.3276C56.685 73.3276 57.8325 73.0076 58.825 72.4501L58.79 72.4676C63.0825 69.9926 64.0475 62.2726 61.83 52.5826C71.305 49.6701 77.49 44.9651 77.49 40.0101C77.49 35.0426 71.2725 30.3351 61.735 27.4126C63.935 17.6976 62.9525 9.95761 58.6475 7.48011C57.6925 6.93261 56.5475 6.61011 55.3275 6.61011C55.295 6.61011 55.2625 6.61011 55.2299 6.61011H55.235L55.24 6.61511ZM46.9675 40.0126C46.9675 43.8701 43.84 46.9976 39.9825 46.9976C36.125 46.9976 32.9975 43.8701 32.9975 40.0126C32.9975 36.1551 36.125 33.0276 39.9825 33.0276C41.9125 33.0276 43.6575 33.8101 44.9225 35.0726C46.1875 36.3376 46.9675 38.0826 46.9675 40.0126Z" fill="white" stroke="white"/>
</svg>
