<svg width="80" height="80" viewBox="0 0 80 80" fill="none" xmlns="http://www.w3.org/2000/svg">
<path d="M12.21 5.83491C9.04754 5.84741 6.48754 8.40741 6.47754 11.5699V63.4549C6.48754 66.6149 9.04754 69.1749 12.21 69.1849H41.6325C41.4925 67.5074 41.4125 65.5549 41.4125 63.5824C41.4125 62.5799 41.4325 61.5799 41.475 60.5874L41.47 60.7299C41.45 60.5374 41.435 60.2899 41.42 60.1049C41.0384 57.6082 40.5459 55.1316 39.9425 52.6749C39.645 51.4149 39.25 50.3149 38.7475 49.2749L38.79 49.3724C38.59 49.0574 38.4725 48.6749 38.4725 48.2649C38.4725 48.1799 38.4775 48.0949 38.4875 48.0124V48.0224C38.495 47.5899 38.5375 47.1749 38.61 46.7699L38.6025 46.8174C38.8225 45.5099 39.0775 44.4099 39.3875 43.3324L39.3325 43.5524L40.01 43.4649C39.9575 43.3549 39.965 43.2624 39.9125 43.1624L39.785 41.9724C40.1584 40.7207 40.5559 39.4774 40.9775 38.2424L41.6025 38.1824C41.5775 38.1324 41.5725 38.0649 41.545 38.0174L41.41 37.0299C43.925 25.2024 49.1775 14.8699 56.4825 6.34991L56.405 6.44241C56.61 6.22741 56.82 6.04241 57.0225 5.83741L12.21 5.83491ZM70.235 4.13741C67.01 1.26241 63.1125 2.41991 59.26 5.83741C58.6667 6.36907 58.0967 6.92657 57.55 7.50991C50.55 15.7449 45.4425 25.8074 43.03 36.8774L42.9475 37.3274C43.6 38.7049 44.1825 40.3299 44.6075 42.0174L44.6475 42.2049C44.8392 42.9316 45.01 43.6632 45.16 44.3999C45.16 44.3999 45.1 44.1774 44.86 43.4749L44.705 43.0199C44.6734 42.9366 44.6392 42.8532 44.6025 42.7699C44.1725 41.7699 42.985 39.6624 42.46 38.7424C42.0125 40.0649 41.6175 41.2974 41.285 42.4174C42.3175 44.5749 43.1575 47.0849 43.6825 49.7099L43.7175 49.9174C43.7175 49.9174 43.64 49.6074 43.2575 48.5374C42.4025 46.6899 41.5975 45.1924 40.72 43.7399L40.845 43.9624C40.3825 45.1224 40.115 46.4649 40.115 47.8724C40.115 48.1224 40.1225 48.3699 40.14 48.6149L40.1375 48.5824C40.685 49.6474 41.14 50.8849 41.435 52.1799L41.455 52.2874C42.3475 55.7249 42.97 59.9099 42.97 59.9099L43.0225 60.6099C42.985 61.4649 42.965 62.4699 42.965 63.4774C42.965 65.4899 43.05 67.4824 43.2175 69.4524L43.2 69.1949C43.345 72.2099 43.9075 75.0424 44.8275 77.7099L44.7625 77.4949L45.2475 77.2324C44.3825 74.2499 43.885 70.8224 43.885 67.2799C43.885 66.4199 43.915 65.5699 43.9725 64.7249L43.965 64.8399C44.5175 55.3849 46.375 46.5424 49.36 38.2374L49.1525 38.8974C53.29 26.6474 60.05 16.2149 68.805 7.85491L68.835 7.82741C62.6075 13.4499 54.1775 31.6649 51.6525 38.4074C49.245 44.4574 47.1575 51.6424 45.74 59.0649L45.62 59.8274C47.28 55.7299 50.405 52.5124 54.3275 50.7724L54.4325 50.7299C54.4325 50.7299 57.735 46.6549 61.5925 40.8399C58.605 41.4649 56.1325 42.1424 53.7175 42.9474L54.215 42.8049C52.34 43.5899 51.835 43.8574 51.835 43.8574C55.055 41.8799 58.7775 40.0699 62.6775 38.6274L63.1225 38.4824C70.29 27.1949 78.1 11.1599 70.235 4.14241V4.13741Z" fill="white"/>
</svg>
